<?xml version="1.0" encoding="UTF-8"?>
<svg version="1.1" xmlns="http://www.w3.org/2000/svg" width="800" height="800">
<path d="M0 0 C1.68695326 6.31531695 2.84153256 12.62477762 3.86352539 19.07836914 C4.03777542 20.16069321 4.21202545 21.24301727 4.39155579 22.35813904 C4.9635933 25.9166184 5.53067616 29.47586788 6.09765625 33.03515625 C6.49567945 35.51806668 6.89399419 38.00093039 7.29258728 40.48374939 C8.12593783 45.67901959 8.95716611 50.8746243 9.78637695 56.07055664 C10.84825532 62.72437948 11.91383971 69.37760283 12.98076725 76.03061771 C13.9999083 82.38613532 15.0177393 88.74186243 16.03515625 95.09765625 C16.32558146 96.91173823 16.32558146 96.91173823 16.62187386 98.76246834 C17.17056712 102.19187677 17.71838271 105.62142411 18.26586914 109.05102539 C18.42744507 110.06057281 18.589021 111.07012024 18.75549316 112.11026001 C19.98340416 119.81195103 21.13709989 127.18530632 21 135 C18.77155786 135.6483289 16.5422154 136.29356369 14.3125 136.9375 C12.45044922 137.47697266 12.45044922 137.47697266 10.55078125 138.02734375 C5.14618612 139.5078104 0.6196824 140.03896576 -5 140 C-4.46451538 141.84102295 -4.46451538 141.84102295 -3.91821289 143.71923828 C0.12954545 157.71545806 3.88029244 171.77887508 7.5625 185.875 C11.20370859 199.79723164 14.8808289 213.70406099 18.80078125 227.55078125 C19.10385696 228.62553711 19.40693268 229.70029297 19.7191925 230.80761719 C21.15912191 235.90969128 22.61226877 241.00732741 24.08813477 246.09912109 C24.60875353 247.93442349 25.12888174 249.76986514 25.6484375 251.60546875 C26.00830498 252.81774895 26.00830498 252.81774895 26.3754425 254.05451965 C27.97755795 259.78466687 28.26419718 265.06482844 28 271 C27.35546875 271.25571777 26.7109375 271.51143555 26.046875 271.77490234 C14.11721238 276.37955886 14.11721238 276.37955886 2.5625 281.8125 C-0.23248883 283.10773872 -1.96732907 283.0961949 -5 283 C-5.41137207 282.27748047 -5.82274414 281.55496094 -6.24658203 280.81054688 C-14.02847849 267.14961858 -21.84142316 253.50963683 -29.7800293 239.93896484 C-34.0238817 232.68177935 -38.23860067 225.40828271 -42.4375 218.125 C-43.05367187 217.05693115 -43.66984375 215.9888623 -44.3046875 214.88842773 C-47.22552523 209.82298012 -50.14200986 204.75511112 -53.04728699 199.6807251 C-54.06250835 197.90815723 -55.07902339 196.13633769 -56.09594727 194.36474609 C-57.3672736 192.14911864 -58.63616121 189.93208926 -59.90209961 187.71337891 C-63.38517331 181.64883536 -67.02838316 175.75734724 -71 170 C-77.2863696 173.31356304 -83.25985293 176.69521163 -88.9296875 180.99609375 C-91 182 -91 182 -93.56640625 181.87890625 C-96.43664643 180.84230265 -97.29014393 179.95766709 -99.0625 177.5 C-99.660625 176.68273437 -100.25875 175.86546875 -100.875 175.0234375 C-101.57625 174.02570313 -102.2775 173.02796875 -103 172 C-103.87483657 170.76290525 -104.74984871 169.52593463 -105.625 168.2890625 C-107.12183302 166.16943912 -108.61630344 164.04826074 -110.10595703 161.92358398 C-114.54823771 155.59725769 -119.11776187 149.37140953 -123.71704102 143.15869141 C-127.68218714 137.79891519 -131.60604881 132.411691 -135.5 127 C-142.88686343 116.7409661 -150.39635809 106.5734156 -157.91552734 96.41113281 C-159.20016009 94.67479306 -160.48426577 92.93806323 -161.76782227 91.20092773 C-162.97149994 89.57192003 -164.17634315 87.94377263 -165.38256836 86.31665039 C-166.45426239 84.8658752 -167.52018287 83.41080959 -168.57910156 81.95068359 C-169.47445087 80.72150129 -170.38588165 79.50372364 -171.31933594 78.30322266 C-173.13953944 75.85785945 -174.00117994 74.40530974 -173.9921875 71.31640625 C-172.77493342 68.47454929 -171.71211899 67.61599416 -169.125 65.9375 C-168.21878906 65.34324219 -167.31257812 64.74898438 -166.37890625 64.13671875 C-165.26386719 63.43160156 -164.14882812 62.72648437 -163 62 C-161.59207281 61.09042411 -160.18454923 60.1802233 -158.77734375 59.26953125 C-150.51332248 53.95563731 -142.14785452 48.80777535 -133.6875 43.8125 C-132.90576416 43.34295898 -132.12402832 42.87341797 -131.31860352 42.38964844 C-127.20074695 39.99051434 -123.85080892 38.39330883 -119 38 C-107.05683482 60.50714421 -95.4744936 83.20296864 -83.86962891 105.88574219 C-74.14677996 124.9091146 -74.14677996 124.9091146 -64.3125 143.875 C-63.88533691 144.69387695 -63.45817383 145.51275391 -63.01806641 146.35644531 C-61.45282987 149.33602032 -59.86869784 152.19695325 -58 155 C-57.25427734 154.68248779 -56.50855469 154.36497559 -55.74023438 154.0378418 C-52.32756571 152.58597477 -48.91379445 151.13671788 -45.5 149.6875 C-44.32695312 149.18798828 -43.15390625 148.68847656 -41.9453125 148.17382812 C-36.00466937 145.65406096 -30.06676163 143.19995193 -24 141 C-26.98851755 127.2831974 -31.49406512 114.10855338 -35.99551392 100.82815552 C-38.01636433 94.86440418 -40.01270188 88.89242741 -42.01071739 82.92099571 C-42.68771072 80.89780776 -43.36519477 78.87478453 -44.04267883 76.85176086 C-48.02344285 64.95883597 -51.96761011 53.05436617 -55.82235718 41.11990356 C-56.47930189 39.09136278 -57.14057881 37.06421959 -57.80630493 35.0385437 C-58.72213648 32.24929233 -59.62289234 29.45562625 -60.51953125 26.66015625 C-60.92419617 25.44249069 -60.92419617 25.44249069 -61.33703613 24.20022583 C-62.62892752 20.10914479 -63.41384516 17.22783441 -62 13 C-52.10941164 9.23463566 -41.98439427 6.69043167 -31.6875 4.3125 C-31.03924255 4.16247528 -30.39098511 4.01245056 -29.7230835 3.85787964 C-25.48722624 2.88127365 -21.24580295 1.93233466 -17 1 C-16.0109668 0.78085938 -15.02193359 0.56171875 -14.00292969 0.3359375 C-12.68470215 0.05556641 -12.68470215 0.05556641 -11.33984375 -0.23046875 C-10.59210693 -0.3905542 -9.84437012 -0.55063965 -9.07397461 -0.71557617 C-5.86165057 -1.15611267 -3.15413764 -0.6856821 0 0 Z " fill="#819DA7" transform="translate(338,5)"/>
<path d="M0 0 C1.33601771 2.76292098 2.22948029 5.09157473 3.0625 8 C3.55061767 9.5485785 4.0441025 11.09547559 4.54296875 12.640625 C4.78321777 13.39021484 5.0234668 14.13980469 5.27099609 14.91210938 C6.50755383 18.45365048 8.25981339 21.6743907 10.1171875 24.921875 C11.1726698 27.40646164 11.06226924 29.32517811 11 32 C8.35921766 33.52352827 5.71843269 35.047052 3.07763672 36.57055664 C0.74328358 37.91732423 -1.59103235 39.26415607 -3.92529297 40.61108398 C-9.83978489 44.02377298 -15.75488441 47.43539406 -21.671875 50.84375 C-33.1114373 57.4350018 -44.53634621 64.04989332 -55.93286133 70.71533203 C-61.2423689 73.81792055 -66.56121553 76.90336417 -71.89453125 79.96484375 C-72.47331024 80.29739166 -73.05208923 80.62993958 -73.64840698 80.9725647 C-76.43373392 82.57276434 -79.22041775 84.17048906 -82.00976562 85.76367188 C-88.79660068 89.65973802 -95.43472243 93.74120064 -102 98 C-98.66712489 104.27645534 -95.30653181 110.25755455 -91.00390625 115.9296875 C-90 118 -90 118 -90.07421875 120.5234375 C-91.24325768 123.65073995 -92.59352631 124.74479083 -95.25 126.75 C-96.62091797 127.79027344 -96.62091797 127.79027344 -98.01953125 128.8515625 C-101.49978864 131.36026704 -105.01417526 133.81362906 -108.55883789 136.23046875 C-113.51913604 139.62484242 -118.35761746 143.1731415 -123.1875 146.75 C-129.43049592 151.37301341 -135.69388421 155.96342566 -142 160.5 C-148.19667119 164.96002881 -154.35981477 169.46252842 -160.5 174 C-168.96180835 180.25249068 -177.48111121 186.42216512 -186.01855469 192.57080078 C-190.35615226 195.69947207 -194.67842467 198.84924794 -199 202 C-204.65522136 197.57787202 -208.33829446 193.06662157 -212.125 187 C-212.67196533 186.14003418 -213.21893066 185.28006836 -213.7824707 184.39404297 C-218.01133789 177.69557518 -222.12386827 170.92475712 -226.1875 164.125 C-226.74002441 163.20460938 -227.29254883 162.28421875 -227.86181641 161.3359375 C-230.42855913 156.98044812 -232.67574035 152.92332116 -234 148 C-229.99834645 143.48160297 -225.83382573 141.09129621 -220.4296875 138.48828125 C-219.17612961 137.86858711 -219.17612961 137.86858711 -217.89724731 137.2363739 C-215.22775332 135.91883344 -212.55180928 134.61510419 -209.875 133.3125 C-206.39123781 131.60429721 -202.91022254 129.89054826 -199.4296875 128.17578125 C-198.56615662 127.75144806 -197.70262573 127.32711487 -196.81292725 126.8899231 C-189.17546478 123.12235906 -181.64477255 119.1660844 -174.12158203 115.17651367 C-169.45380217 112.70317107 -164.74071879 110.33008501 -160 108 C-152.52802498 104.29651861 -145.13224903 100.46708253 -137.7644043 96.56103516 C-130.8980005 92.92694862 -123.96889447 89.43328895 -117 86 C-117.28198242 85.29504395 -117.56396484 84.59008789 -117.85449219 83.86376953 C-122.23632812 72.90917969 -126.61816406 61.95458984 -131 51 C-150.51226744 56.21782717 -169.61883239 62.69960878 -188.78100586 69.05657959 C-193.18981509 70.51858546 -197.59976542 71.97713812 -202.00976562 73.43554688 C-203.30081428 73.8626039 -203.30081428 73.8626039 -204.61794472 74.29828835 C-211.23465257 76.48637385 -217.85361402 78.66757713 -224.47374535 80.8452816 C-229.04207616 82.34951978 -233.60313532 83.87384525 -238.16064453 85.41064453 C-240.13949722 86.06718771 -242.11848607 86.72332075 -244.09765625 87.37890625 C-244.94508896 87.67111557 -245.79252167 87.96332489 -246.66563416 88.26438904 C-251.17278829 89.73897024 -254.27459425 90.28368251 -259 89 C-264.77714809 73.04893626 -269.0448365 56.52818698 -271.9375 39.8125 C-272.13013428 38.72714966 -272.13013428 38.72714966 -272.32666016 37.61987305 C-272.9430121 33.76328409 -272.8668895 30.78194237 -272 27 C-247.76576845 22.46314562 -223.41582486 18.63908925 -199.06542969 14.78686523 C-193.22557934 13.86280892 -187.38684173 12.9319072 -181.54834175 11.99936199 C-177.01586056 11.27641712 -172.48271557 10.55770658 -167.94936752 9.8402195 C-165.79378861 9.49840588 -163.63844241 9.15512122 -161.48334122 8.81030846 C-158.49234102 8.33225506 -155.50046843 7.86008721 -152.50830078 7.3894043 C-151.6294371 7.24764771 -150.75057343 7.10589111 -149.84507751 6.95983887 C-145.51456266 6.285057 -141.40001642 5.8411761 -137 6 C-134.36451731 14.64847718 -132.29564468 23.04911563 -131 32 C-129.95900146 31.69449219 -128.91800293 31.38898438 -127.84545898 31.07421875 C-109.2537836 25.66995677 -90.53185976 20.73840204 -71.82830811 15.73937988 C-66.33289204 14.27029745 -60.83786729 12.79975071 -55.34322166 11.32778931 C-50.94514285 10.14966062 -46.54651069 8.97371484 -42.14639282 7.80322266 C-34.99416711 5.89778099 -27.85143985 3.97977112 -20.74560547 1.90625 C-19.20192543 1.46116089 -19.20192543 1.46116089 -17.62705994 1.00708008 C-15.83291502 0.48536176 -14.04259171 -0.04982422 -12.25782776 -0.6027832 C-7.56797739 -1.96055872 -4.52876256 -2.40749952 0 0 Z " fill="#53D0B5" transform="translate(277,435)"/>
<path d="M0 0 C0.32049316 0.57105469 0.64098633 1.14210938 0.97119141 1.73046875 C7.75882111 13.81230557 14.62440301 25.84327937 21.62548828 37.80273438 C25.94618957 45.18517194 30.23139578 52.5873282 34.5 60 C41.62183895 72.35968156 48.78359744 84.69528334 56 97 C56.47791992 97.81791016 56.95583984 98.63582031 57.44824219 99.47851562 C58.70990014 101.63486982 59.97841616 103.78698855 61.25 105.9375 C61.60884277 106.55262451 61.96768555 107.16774902 62.33740234 107.80151367 C64.12201336 110.94790336 64.12201336 110.94790336 67 113 C68.74112271 112.2279762 68.74112271 112.2279762 70.58984375 110.98046875 C71.29173828 110.53509766 71.99363281 110.08972656 72.71679688 109.63085938 C73.44962891 109.15455078 74.18246094 108.67824219 74.9375 108.1875 C75.66646484 107.72279297 76.39542969 107.25808594 77.14648438 106.77929688 C80.11752924 104.88120497 83.06645772 102.95569485 86 101 C88.88060495 101.18031956 90.45464821 101.4986497 92.59765625 103.46875 C93.08105469 104.1390625 93.56445312 104.809375 94.0625 105.5 C94.660625 106.31726563 95.25875 107.13453125 95.875 107.9765625 C96.57625 108.97429687 97.2775 109.97203125 98 111 C98.87483657 112.23709475 99.74984871 113.47406537 100.625 114.7109375 C102.12183302 116.83056088 103.61630344 118.95173926 105.10595703 121.07641602 C109.54823771 127.40274231 114.11776187 133.62859047 118.71704102 139.84130859 C122.68218599 145.20108325 126.60615888 150.58823087 130.5 156 C134.9600833 162.19663284 139.46254564 168.35980067 144 174.5 C150.26058506 182.97323498 156.48977744 191.47103266 162.59033203 200.06054688 C163.53509128 201.36036805 164.51088453 202.6381529 165.51513672 203.89257812 C169.02264358 208.36962991 169.02264358 208.36962991 168.91064453 211.48754883 C167.73143786 214.74095792 166.37543286 215.61038531 163.49609375 217.49609375 C162.53880371 218.13087646 161.58151367 218.76565918 160.59521484 219.41967773 C159.55316895 220.08555908 158.51112305 220.75144043 157.4375 221.4375 C155.83962646 222.47789429 155.83962646 222.47789429 154.20947266 223.53930664 C146.5267646 228.49460265 138.74101258 233.27839555 130.875 237.9375 C129.87525146 238.53425537 128.87550293 239.13101074 127.84545898 239.74584961 C126.90387939 240.29249268 125.9622998 240.83913574 124.9921875 241.40234375 C124.17089355 241.88179443 123.34959961 242.36124512 122.50341797 242.85522461 C119.6721727 244.14991049 117.07775484 244.61339374 114 245 C107.98517062 233.66492842 102.06261797 222.28298782 96.1875 210.875 C95.83544495 210.19142426 95.48338989 209.50784851 95.1206665 208.80355835 C90.57257037 199.9694758 86.03978946 191.12761036 81.515625 182.28125 C80.81962944 180.9207402 80.81962944 180.9207402 80.10957336 179.53274536 C77.84037661 175.09680066 75.57252853 170.66017769 73.30737305 166.22216797 C68.86223723 157.52349381 64.36162127 148.86515229 59.69360352 140.28369141 C55 131.18336457 55 131.18336457 55 127 C54.04130005 127.42297363 54.04130005 127.42297363 53.06323242 127.85449219 C50.10623873 129.15662519 47.14689331 130.45333044 44.1875 131.75 C43.18267578 132.1934375 42.17785156 132.636875 41.14257812 133.09375 C23.06284467 141 23.06284467 141 18 141 C22.72450962 156.9211094 27.85023037 172.69194407 33.125 188.4375 C38.06718412 203.19942103 42.99549431 217.96526401 47.83343506 232.76174927 C48.43657557 234.60476787 49.04123037 236.44729172 49.64752197 238.28927612 C58.55039071 265.34882787 58.55039071 265.34882787 57 270 C54.32274115 271.10622848 51.76727167 271.99194912 49 272.8125 C47.74630615 273.19390137 47.74630615 273.19390137 46.46728516 273.58300781 C29.91080341 278.50316556 13.24619649 282.62409987 -4 284 C-6.27208605 277.78950968 -7.74617206 271.734693 -8.76171875 265.20776367 C-8.91339508 264.2729718 -9.06507141 263.33817993 -9.22134399 262.37506104 C-9.7172765 259.30714131 -10.20248693 256.23763202 -10.6875 253.16796875 C-11.03411977 251.00903884 -11.38138043 248.85021174 -11.72924805 246.69148254 C-12.64228838 241.01376954 -13.54609918 235.33462392 -14.44812012 229.65515137 C-15.17793038 225.06950214 -15.91406831 220.48488015 -16.65061951 215.90030956 C-18.6388077 203.52445838 -20.62659458 191.14851145 -22.56549072 178.76482773 C-22.85806015 176.90317806 -23.1529871 175.04189753 -23.45013428 173.18097305 C-23.88272082 170.46959031 -24.30744575 167.75707855 -24.73046875 165.04418945 C-24.92386589 163.84816117 -24.92386589 163.84816117 -25.12117004 162.6279707 C-25.88008323 157.69246436 -26.11536961 152.99415083 -26 148 C-23.1700421 147.1534314 -20.33692438 146.32261914 -17.5 145.5 C-16.70851563 145.26152344 -15.91703125 145.02304687 -15.1015625 144.77734375 C-13.92207031 144.43896484 -13.92207031 144.43896484 -12.71875 144.09375 C-12.00654297 143.88427734 -11.29433594 143.67480469 -10.56054688 143.45898438 C-7.00395517 142.8214565 -3.61203894 142.93335722 0 143 C-0.35698975 141.77265137 -0.71397949 140.54530273 -1.08178711 139.28076172 C-5.12954545 125.28454194 -8.88029244 111.22112492 -12.5625 97.125 C-16.20370859 83.20276836 -19.8808289 69.29593901 -23.80078125 55.44921875 C-24.25539482 53.83708496 -24.25539482 53.83708496 -24.7191925 52.19238281 C-26.15912191 47.09030872 -27.61226877 41.99267259 -29.08813477 36.90087891 C-29.60875353 35.06557651 -30.12888174 33.23013486 -30.6484375 31.39453125 C-31.00830498 30.18225105 -31.00830498 30.18225105 -31.3754425 28.94548035 C-32.97755795 23.21533313 -33.26419718 17.93517156 -33 12 C-32.35546875 11.74428223 -31.7109375 11.48856445 -31.046875 11.22509766 C-19.11721238 6.62044114 -19.11721238 6.62044114 -7.5625 1.1875 C-4.76751117 -0.10773872 -3.03267093 -0.0961949 0 0 Z " fill="#AEBEC5" transform="translate(467,512)"/>
<path d="M0 0 C5.67411896 4.43535271 9.38000031 8.98076202 13.1875 15.0625 C13.73776855 15.92504395 14.28803711 16.78758789 14.85498047 17.67626953 C20.46877493 26.56704644 25.77030555 35.65636863 30.82910156 44.87402344 C31.84375484 46.71630883 32.89881859 48.53622778 33.9609375 50.3515625 C35 53 35 53 34.34326172 55.0012207 C32.68129956 57.47422764 31.19852635 58.28600197 28.546875 59.62890625 C27.62874023 60.10086426 26.71060547 60.57282227 25.76464844 61.05908203 C24.76981445 61.55520996 23.77498047 62.05133789 22.75 62.5625 C21.72165039 63.0869873 20.69330078 63.61147461 19.63378906 64.15185547 C16.42920718 65.7815611 13.21620821 67.39337575 10 69 C8.54787109 69.72727295 8.54787109 69.72727295 7.06640625 70.46923828 C3.37906895 72.31482475 -0.30950018 74.1578367 -4.00244141 75.9921875 C-10.70884387 79.32916065 -17.34235576 82.78852167 -23.95800781 86.30126953 C-30.42068277 89.72212827 -36.95231115 92.99195144 -43.50244141 96.24145508 C-50.12424399 99.53682135 -56.67923852 102.948143 -63.20703125 106.42578125 C-69.41722363 109.72669432 -75.70013732 112.87405291 -82 116 C-81.71801758 116.70495605 -81.43603516 117.40991211 -81.14550781 118.13623047 C-76.76367188 129.09082031 -72.38183594 140.04541016 -68 151 C-53.88828611 147.08581929 -39.94496761 142.799154 -26.05078125 138.17578125 C-24.13190548 137.5409462 -22.21289093 136.90653048 -20.29374695 136.27250671 C-15.31044564 134.62516732 -10.32874113 132.97305621 -5.34747314 131.31958008 C2.65900715 128.66282945 10.66795137 126.0135167 18.67691994 123.36427879 C21.4480172 122.44687049 24.21841104 121.52736433 26.98869324 120.60749817 C40.81696771 116.0204601 40.81696771 116.0204601 46.89770508 114.11010742 C47.59052078 113.89182785 48.28333649 113.67354828 48.99714661 113.44865417 C52.68096804 112.62345056 56.24485447 112.81829941 60 113 C65.77714809 128.95106374 70.0448365 145.47181302 72.9375 162.1875 C73.06592285 162.91106689 73.1943457 163.63463379 73.32666016 164.38012695 C73.9430121 168.23671591 73.8668895 171.21805763 73 175 C48.76576845 179.53685438 24.41582486 183.36091075 0.06542969 187.21313477 C-5.77442066 188.13719108 -11.61315827 189.0680928 -17.45165825 190.00063801 C-21.98413944 190.72358288 -26.51728443 191.44229342 -31.05063248 192.1597805 C-33.20621139 192.50159412 -35.36155759 192.84487878 -37.51665878 193.18969154 C-40.50765898 193.66774494 -43.49953157 194.13991279 -46.49169922 194.6105957 C-47.80999474 194.82323059 -47.80999474 194.82323059 -49.15492249 195.04016113 C-53.48543734 195.714943 -57.59998358 196.1588239 -62 196 C-64.63548269 187.35152282 -66.70435532 178.95088437 -68 170 C-69.04099854 170.30550781 -70.08199707 170.61101562 -71.15454102 170.92578125 C-89.7462164 176.33004323 -108.46814024 181.26159796 -127.17169189 186.26062012 C-132.66710796 187.72970255 -138.16213271 189.20024929 -143.65677834 190.67221069 C-148.05485715 191.85033938 -152.45348931 193.02628516 -156.85360718 194.19677734 C-164.00583289 196.10221901 -171.14856015 198.02022888 -178.25439453 200.09375 C-179.28351456 200.39047607 -180.31263458 200.68720215 -181.37294006 200.99291992 C-183.16708498 201.51463824 -184.95740829 202.04982422 -186.74217224 202.6027832 C-191.43202261 203.96055872 -194.47123744 204.40749952 -199 202 C-200.33601771 199.23707902 -201.22948029 196.90842527 -202.0625 194 C-202.55061767 192.4514215 -203.0441025 190.90452441 -203.54296875 189.359375 C-203.78321777 188.60978516 -204.0234668 187.86019531 -204.27099609 187.08789062 C-205.50755383 183.54634952 -207.25981339 180.3256093 -209.1171875 177.078125 C-210.1726698 174.59353836 -210.06226924 172.67482189 -210 170 C-207.35921766 168.47647173 -204.71843269 166.952948 -202.07763672 165.42944336 C-199.74328358 164.08267577 -197.40896765 162.73584393 -195.07470703 161.38891602 C-189.16021511 157.97622702 -183.24511559 154.56460594 -177.328125 151.15625 C-165.8885627 144.5649982 -154.46365379 137.95010668 -143.06713867 131.28466797 C-137.7576311 128.18207945 -132.43878447 125.09663583 -127.10546875 122.03515625 C-126.52668976 121.70260834 -125.94791077 121.37006042 -125.35159302 121.0274353 C-122.56626608 119.42723566 -119.77958225 117.82951094 -116.99023438 116.23632812 C-110.20339932 112.34026198 -103.56527757 108.25879936 -97 104 C-100.33287511 97.72354466 -103.69346819 91.74244545 -107.99609375 86.0703125 C-109 84 -109 84 -108.92578125 81.4765625 C-107.75674232 78.34926005 -106.40647369 77.25520917 -103.75 75.25 C-102.37908203 74.20972656 -102.37908203 74.20972656 -100.98046875 73.1484375 C-97.50021136 70.63973296 -93.98582474 68.18637094 -90.44116211 65.76953125 C-84.6441967 61.80261915 -79.01205822 57.61994844 -73.36816406 53.43945312 C-67.87884697 49.37635686 -62.3585545 45.36023201 -56.8125 41.375 C-51.16117073 37.31059975 -45.55651306 33.19307427 -40 29 C-26.85193915 19.08114357 -13.41432006 9.55392892 0 0 Z " fill="#E862A6" transform="translate(722,163)"/>
<path d="M0 0 C5.23475058 0.55599555 9.31372487 3.1493666 13.8125 5.6875 C15.12323486 6.41791504 15.12323486 6.41791504 16.46044922 7.16308594 C25.28398283 12.10600676 34.01097534 17.215189 42.734375 22.33203125 C49.09771229 26.06326084 55.48362095 29.75456023 61.875 33.4375 C62.9489502 34.05689453 64.02290039 34.67628906 65.12939453 35.31445312 C70.67902979 38.51409347 76.23210838 41.70761886 81.7890625 44.89453125 C88.20440844 48.57634164 94.60615614 52.2809927 101 56 C102.41949951 56.82153564 102.41949951 56.82153564 103.86767578 57.65966797 C106.44108776 59.15510984 109.00343819 60.66766695 111.5625 62.1875 C112.31273437 62.62094727 113.06296875 63.05439453 113.8359375 63.50097656 C118.78064689 66.47678398 118.78064689 66.47678398 119.80541992 68.92114258 C120.15184972 72.62233416 117.67321761 75.4894922 115.75 78.5 C115.13705078 79.49580078 115.13705078 79.49580078 114.51171875 80.51171875 C112.47777878 83.7882587 110.38524629 86.964232 108 90 C109.38633341 93.27402212 110.84506712 94.92813248 113.71875 96.99609375 C114.85582397 97.82379272 114.85582397 97.82379272 116.01586914 98.66821289 C117.24551392 99.54401001 117.24551392 99.54401001 118.5 100.4375 C119.35005615 101.05294678 120.2001123 101.66839355 121.07592773 102.30249023 C123.71210773 104.20895883 126.35592166 106.10450745 129 108 C130.54371267 109.11615934 132.0867164 110.23330003 133.62890625 111.3515625 C137.33639377 114.03827138 141.05013606 116.71616273 144.76611328 119.39111328 C148.51359784 122.09012128 152.25655845 124.79538884 156 127.5 C157.49997854 128.58336304 158.99997854 129.66669638 160.5 130.75 C163.5 132.91666667 166.5 135.08333333 169.5 137.25 C170.2429834 137.78657227 170.9859668 138.32314453 171.75146484 138.87597656 C173.24668511 139.95591198 174.74180284 141.03598939 176.23681641 142.11621094 C180.05910435 144.8777244 183.88331583 147.63650813 187.7109375 150.390625 C196.20732474 156.50805914 204.65954503 162.67106652 213 169 C212.58382169 174.32228036 210.57464362 177.44758295 207.25 181.4375 C206.51680542 182.34157593 206.51680542 182.34157593 205.76879883 183.26391602 C204.19519045 185.18986557 202.60157127 187.09725791 201 189 C200.4829248 189.61617187 199.96584961 190.23234375 199.43310547 190.8671875 C191.27313249 200.53977817 182.69544533 209.80916198 174 219 C165.62624985 216.64488277 159.1278516 208.27360613 153.16650391 202.28675842 C152.42054553 201.54165447 151.67458715 200.79655052 150.90602398 200.02886766 C148.42715923 197.55163946 145.9518665 195.07087368 143.4765625 192.59008789 C141.69236883 190.80561193 139.9079545 189.02135657 138.12333679 187.23730469 C134.2919683 183.40616332 130.46212963 179.57350306 126.63369751 175.73942757 C121.09853892 170.19611511 115.56059561 164.65559148 110.02198565 159.11572772 C101.03434484 150.12590248 92.04893587 141.13384997 83.06494141 132.14038086 C74.34183465 123.4080842 65.61767012 114.67684656 56.89208984 105.94702148 C56.35354543 105.40821435 55.81500102 104.86940721 55.26013708 104.31427259 C52.5582025 101.6110329 49.85624721 98.90781392 47.15428162 96.20460522 C24.76630896 73.80627893 2.38200056 51.40429409 -20 29 C-17.353658 24.26302689 -14.72949772 20.29168666 -11.125 16.1875 C-6.76606735 11.12811086 -3.19179156 5.86459263 0 0 Z " fill="#D19FC0" transform="translate(511,464)"/>
<path d="M0 0 C5.42590036 1.50795495 8.77104689 5.21435848 12.70506287 9.0246582 C13.45095372 9.73741818 14.19684457 10.45017817 14.96533817 11.18453693 C23.32970492 19.21040164 31.53226266 27.39923111 39.71899414 35.60546875 C41.41584616 37.30260374 43.11292018 38.9995168 44.81019592 40.69622803 C49.36087119 45.24661957 53.90848426 49.80005978 58.45550084 54.3541069 C62.743253 58.64801327 67.03384619 62.9390798 71.3241642 67.23042214 C79.80767326 75.71610621 88.28895863 84.20400908 96.76879883 92.69335938 C104.99384635 100.9276215 113.21997006 109.16080611 121.44750977 117.39257812 C121.95680671 117.90213779 122.46610365 118.41169745 122.99083383 118.93669832 C125.54647597 121.49364574 128.10213893 124.05057235 130.65781224 126.60748863 C151.77510169 147.7351023 172.88872484 168.86637658 194 190 C191.64511249 194.20317018 189.55420066 197.76673333 186.1875 201.25 C182.34294336 205.42511665 179.3776919 209.8661885 176.4453125 214.71484375 C175 217 175 217 173 219 C169.18124277 218.65411698 166.43547194 217.313127 163.17578125 215.3671875 C162.24330566 214.81619385 161.31083008 214.2652002 160.35009766 213.69750977 C159.34769043 213.09608154 158.3452832 212.49465332 157.3125 211.875 C155.13974019 210.58913841 152.96654843 209.30400648 150.79296875 208.01953125 C149.67067871 207.3538916 148.54838867 206.68825195 147.39208984 206.00244141 C141.99305852 202.81524874 136.5594716 199.68875325 131.125 196.5625 C128.94005632 195.30346844 126.75516075 194.04435339 124.5703125 192.78515625 C123.48524414 192.16012207 122.40017578 191.53508789 121.28222656 190.89111328 C114.78152037 187.14561565 108.28374968 183.39502735 101.78564453 179.64501953 C96.76346298 176.74705111 91.74072934 173.85005713 86.71557617 170.95724487 C84.94954478 169.94052802 83.18372569 168.92344342 81.41796875 167.90625 C79.21265845 166.63599127 77.00695784 165.36640982 74.80078125 164.09765625 C72.80910199 162.95008177 70.81942092 161.79903031 68.83203125 160.64404297 C66.93902283 159.54511894 65.0405103 158.45562376 63.13671875 157.37548828 C62.24597656 156.86099121 61.35523438 156.34649414 60.4375 155.81640625 C59.65246094 155.3685376 58.86742187 154.92066895 58.05859375 154.45922852 C55.8334873 152.88196793 54.5111351 151.25433114 53 149 C54.60193733 146.4152606 56.206453 143.83218405 57.8125 141.25 C58.49022461 140.15558594 58.49022461 140.15558594 59.18164062 139.0390625 C61.33179647 135.58625749 63.47050272 132.19338527 66 129 C64.60900433 125.70952986 63.12955142 124.05134248 60.24609375 121.96875 C59.48272705 121.41171387 58.71936035 120.85467773 57.93286133 120.28076172 C57.10939209 119.69311035 56.28592285 119.10545898 55.4375 118.5 C54.58631592 117.8827002 53.73513184 117.26540039 52.8581543 116.62939453 C46.68128556 112.16306974 40.45041235 107.77273804 34.20678711 103.40039062 C29.40031089 100.02380605 24.68313201 96.54528222 20 93 C14.60916655 88.9202533 9.15897902 84.94597169 3.625 81.0625 C-7.81951356 73.03130865 -19.22217317 64.9338024 -30.375 56.5 C-31.37273437 55.7471875 -32.37046875 54.994375 -33.3984375 54.21875 C-35.98765514 52.01052835 -37.97485398 49.72578895 -40 47 C-33.40590539 38.21759966 -26.51824601 29.76724965 -19.29980469 21.49072266 C-18.21914741 20.25133623 -17.14401914 19.00713151 -16.0703125 17.76171875 C-10.84461539 11.72341324 -5.41143147 5.87135422 0 0 Z " fill="#4CC8AE" transform="translate(115,117)"/>
<path d="M0 0 C4.30294594 1.23562228 7.26591977 2.68697841 10.6875 5.5625 C11.54988281 6.27921875 12.41226563 6.9959375 13.30078125 7.734375 C14.63689453 8.85585937 14.63689453 8.85585937 16 10 C17.79165178 11.43751856 19.58331866 12.87501829 21.375 14.3125 C26.93456061 18.86977363 32.21580121 23.70056819 37.47851562 28.59179688 C40.05301161 30.97461024 42.65182448 33.33057152 45.25 35.6875 C46.16265625 36.51636719 47.0753125 37.34523437 48.015625 38.19921875 C48.67046875 38.79347656 49.3253125 39.38773438 50 40 C48.66743916 43.93149094 47.05863316 46.31233331 44.12409973 49.22993469 C43.31529358 50.04141968 42.50648743 50.85290466 41.673172 51.6889801 C40.78433823 52.565457 39.89550446 53.4419339 38.97973633 54.3449707 C38.03449426 55.28772785 37.08992083 56.23115582 36.14596558 57.17520142 C34.11450934 59.20395559 32.07839085 61.2278678 30.0384922 63.24813271 C26.80713298 66.4484001 23.58624514 69.65907063 20.36662292 72.87113953 C15.26673615 77.95654013 10.15968207 83.03467474 5.04964322 88.10987204 C-4.08471211 97.18238706 -13.20708267 106.2669442 -22.32652456 115.35444707 C-25.52287289 118.53902863 -28.72237677 121.72039497 -31.92463052 124.89903796 C-33.92591014 126.88638247 -35.92511919 128.87580103 -37.92389297 130.86566544 C-39.27933256 132.21370625 -40.63737836 133.55912499 -41.99552917 134.9044342 C-46.25725405 139.15082539 -50.33644238 143.46848171 -54.25766659 148.02972698 C-57.51512868 151.71334437 -61.02152674 155.15152766 -64.50561523 158.61914062 C-65.32593735 159.43960876 -66.14625946 160.2600769 -66.99143982 161.10540771 C-69.67812519 163.79140164 -72.36832514 166.47384544 -75.05859375 169.15625 C-76.93210899 171.02789832 -78.80542574 172.89974321 -80.67848206 174.77185059 C-85.08907021 179.17934477 -89.5021986 183.58428614 -93.91627127 187.98829031 C-98.94614333 193.00694079 -103.9731375 198.02846979 -108.99990547 203.05022907 C-119.33009653 213.36999961 -129.66385319 223.68619471 -140 234 C-144.73697311 231.353658 -148.70831334 228.72949772 -152.8125 225.125 C-157.87188914 220.76606735 -163.13540737 217.19179156 -169 214 C-168.39404523 209.35731716 -166.45092305 205.6227659 -164.25 201.5625 C-163.85369385 200.82298096 -163.4573877 200.08346191 -163.04907227 199.3215332 C-159.30611761 192.41624251 -155.31034972 185.66600846 -151.28759766 178.92114258 C-146.81388046 171.41264929 -142.45005748 163.84473625 -138.125 156.25 C-137.44681848 155.05995377 -136.76859572 153.86993104 -136.09033203 152.67993164 C-135.75384644 152.08956619 -135.41736084 151.49920074 -135.07067871 150.89094543 C-134.73411255 150.30044907 -134.39754639 149.7099527 -134.05078125 149.1015625 C-133.71421509 148.51094528 -133.37764893 147.92032806 -133.03088379 147.31181335 C-127.66457736 137.89846851 -122.25407063 128.51075582 -116.81689453 119.13818359 C-115.58500662 117.01043739 -114.35693478 114.8804781 -113.13232422 112.74853516 C-111.3465298 109.63996488 -109.54957367 106.5381082 -107.75 103.4375 C-107.21286377 102.49664551 -106.67572754 101.55579102 -106.12231445 100.58642578 C-105.62304443 99.73161621 -105.12377441 98.87680664 -104.609375 97.99609375 C-104.17592773 97.24513428 -103.74248047 96.4941748 -103.29589844 95.72045898 C-102 94 -102 94 -99 93 C-97.25415039 93.75683594 -97.25415039 93.75683594 -95.34765625 94.984375 C-94.65349609 95.42523438 -93.95933594 95.86609375 -93.24414062 96.3203125 C-92.52419922 96.79210937 -91.80425781 97.26390625 -91.0625 97.75 C-90.34642578 98.20632812 -89.63035156 98.66265625 -88.89257812 99.1328125 C-86.04850707 100.95681358 -83.30337781 102.75238641 -80.68359375 104.890625 C-80.12800781 105.25671875 -79.57242188 105.6228125 -79 106 C-75.61291551 104.87097184 -75.12532029 104.18270273 -73.1015625 101.37890625 C-72.54654053 100.61763428 -71.99151855 99.8563623 -71.41967773 99.07202148 C-70.82743408 98.24387939 -70.23519043 97.4157373 -69.625 96.5625 C-69.0050415 95.70793213 -68.38508301 94.85336426 -67.74633789 93.97290039 C-65.82407682 91.32011663 -63.91178069 88.66034265 -62 86 C-60.88225481 84.45519029 -59.76380105 82.91089294 -58.64453125 81.3671875 C-55.95940578 77.66080331 -53.2827726 73.94838492 -50.60888672 70.23388672 C-47.36853805 65.73476831 -44.11972298 61.24175881 -40.87255859 56.74755859 C-38.17401978 53.012055 -35.47742047 49.2751852 -32.78515625 45.53515625 C-27.15363507 37.71710903 -21.48252532 29.93185806 -15.75 22.1875 C-10.34986482 14.88997976 -5.09791495 7.51200695 0 0 Z " fill="#CC7EAC" transform="translate(633,75)"/>
<path d="M0 0 C4.74002619 2.64980388 8.75125356 5.28767586 12.875 8.875 C17.67749637 12.99164271 22.6258982 16.66154282 28 20 C27.9282354 28.32469363 23.65242324 34.37565148 19.4375 41.25 C18.27088947 43.18831435 17.10937819 45.12962951 15.94786072 47.07099915 C15.15086779 48.40212072 14.35223742 49.73226319 13.55201721 51.06144714 C9.87386473 57.17618618 6.32381645 63.35958908 2.80325317 69.56604004 C-2.95366468 79.71410396 -8.78434638 89.81676012 -14.68969727 99.87915039 C-17.93495987 105.4205325 -21.13362668 110.98529653 -24.2890625 116.578125 C-25.01819469 117.867207 -25.74736119 119.1562696 -26.4765625 120.4453125 C-27.88223946 122.93091441 -29.27927338 125.42111705 -30.671875 127.9140625 C-31.30867187 129.04070312 -31.94546875 130.16734375 -32.6015625 131.328125 C-33.16182129 132.3274707 -33.72208008 133.32681641 -34.29931641 134.35644531 C-35.96816724 136.95051893 -37.73714104 138.91700773 -40 141 C-47.40002906 137.1593005 -54.2757627 132.93013494 -61 128 C-64.16790156 129.35507085 -65.80615319 130.68782096 -67.77734375 133.5 C-68.28394531 134.21285156 -68.79054688 134.92570313 -69.3125 135.66015625 C-69.84875 136.43230469 -70.385 137.20445312 -70.9375 138 C-72.10264043 139.64599203 -73.26801137 141.29182091 -74.43359375 142.9375 C-75.32280518 144.20207031 -75.32280518 144.20207031 -76.22998047 145.4921875 C-78.95407464 149.35175926 -81.72776226 153.17494437 -84.5 157 C-85.58360711 158.49980223 -86.6669396 159.99980292 -87.75 161.5 C-89.91666667 164.5 -92.08333333 167.5 -94.25 170.5 C-94.78616943 171.24241943 -95.32233887 171.98483887 -95.87475586 172.74975586 C-96.95878416 174.2506555 -98.04293142 175.75146922 -99.12719727 177.25219727 C-101.82587655 180.98773967 -104.52251312 184.72472254 -107.21484375 188.46484375 C-112.84636493 196.28289097 -118.51747468 204.06814194 -124.25 211.8125 C-129.65013518 219.11002024 -134.90208505 226.48799305 -140 234 C-144.30294594 232.76437772 -147.26591977 231.31302159 -150.6875 228.4375 C-151.54988281 227.72078125 -152.41226563 227.0040625 -153.30078125 226.265625 C-154.63689453 225.14414062 -154.63689453 225.14414062 -156 224 C-157.79165178 222.56248144 -159.58331866 221.12498171 -161.375 219.6875 C-166.93456061 215.13022637 -172.21580121 210.29943181 -177.47851562 205.40820312 C-180.05301161 203.02538976 -182.65182448 200.66942848 -185.25 198.3125 C-186.16265625 197.48363281 -187.0753125 196.65476562 -188.015625 195.80078125 C-188.67046875 195.20652344 -189.3253125 194.61226562 -190 194 C-188.68042669 190.13077746 -187.12892061 187.75766485 -184.23799133 184.88395691 C-183.45442764 184.09771439 -182.67086395 183.31147186 -181.86355591 182.50140381 C-181.00277435 181.65297913 -180.1419928 180.80455444 -179.25512695 179.93041992 C-177.8963015 178.57334679 -177.8963015 178.57334679 -176.51002502 177.18885803 C-174.54241053 175.22394519 -172.57013766 173.26387631 -170.59407997 171.30745506 C-167.46353205 168.20800598 -164.34346309 165.09814837 -161.22465515 161.9868927 C-156.2841399 157.06086265 -151.3364591 152.14210006 -146.385791 147.22627574 C-137.53702087 138.43934584 -128.70023073 129.64037679 -119.86637658 120.83845407 C-116.77038421 117.75422484 -113.671237 114.67321215 -110.56933463 111.59492719 C-109.09980167 110.13595946 -107.63142126 108.67584281 -106.16349792 107.21525574 C-104.382361 105.4432185 -102.5993769 103.67303493 -100.81408691 101.90518188 C-96.6244626 97.73110889 -92.62484314 93.47920999 -88.76881504 88.99675465 C-85.41405324 85.20967909 -81.80338594 81.67351385 -78.21899414 78.10546875 C-77.36941132 77.2557399 -76.51982849 76.40601105 -75.64450073 75.53053284 C-73.33894061 73.22554557 -71.03119363 70.92277645 -68.72241139 68.62101746 C-66.30095919 66.20586242 -63.88238261 63.787831 -61.46348572 61.37011719 C-56.89352546 56.80325162 -52.32102458 52.23893879 -47.74758095 47.6755619 C-42.53633498 42.47553522 -37.3279649 37.27263203 -32.11982167 32.06949806 C-21.41638726 21.37648584 -10.70938809 10.68704968 0 0 Z " fill="#6EDBC3" transform="translate(307,491)"/>
<path d="M0 0 C2.83356662 0.28951659 5.6668335 0.58161182 8.5 0.875 C9.27214844 0.95363281 10.04429687 1.03226563 10.83984375 1.11328125 C18.91349894 1.95294139 26.93864513 2.99233064 35 4 C35 93.43 35 182.86 35 275 C-17 275 -17 275 -29 271 C-27.0759482 253.9041975 -24.69970211 236.92096995 -21.98828125 219.93359375 C-21.61102063 217.5480019 -21.23417245 215.1623448 -20.85771179 212.77662659 C-19.88037145 206.58999551 -18.89754816 200.40424851 -17.91345215 194.21868896 C-16.90438469 187.86963982 -15.90068213 181.51974271 -14.89648438 175.16992188 C-12.93614373 162.77912754 -10.96999093 150.38926346 -9 138 C-10.26908203 138.00757324 -11.53816406 138.01514648 -12.84570312 138.02294922 C-15.86255436 138.04095227 -18.55905147 137.86023713 -21.5 137.125 C-22.24121094 136.94453125 -22.98242188 136.7640625 -23.74609375 136.578125 C-24.48988281 136.38734375 -25.23367188 136.1965625 -26 136 C-26.77472656 135.80921875 -27.54945313 135.6184375 -28.34765625 135.421875 C-30.23382399 134.95615457 -32.11722494 134.47925183 -34 134 C-35.65422745 129.88706244 -34.3611323 126.06450656 -33.37231445 121.9375 C-33.18845593 121.14311523 -33.00459742 120.34873047 -32.81516743 119.53027344 C-30.73153234 110.64191466 -28.40052567 101.8188058 -26.04296875 93 C-25.57190397 91.22721336 -25.10115231 89.4543435 -24.63069153 87.68139648 C-23.40203516 83.05469505 -22.1689895 78.42917482 -20.93499756 73.80389404 C-19.70054442 69.17340964 -18.47064289 64.54171669 -17.24023438 59.91015625 C-15.13288499 51.97955307 -13.01816481 44.05094304 -10.89922905 36.12342834 C-9.70019951 31.63425829 -8.50839802 27.14330244 -7.32711697 22.64942932 C-6.83024423 20.76052493 -6.33074032 18.87231327 -5.83113098 16.98413086 C-5.24802608 14.78037504 -4.66899867 12.57553424 -4.09501648 10.36938477 C-3.84363419 9.42377686 -3.59225189 8.47816895 -3.33325195 7.50390625 C-3.12166946 6.69767822 -2.91008698 5.8914502 -2.6920929 5.06079102 C-2 3 -2 3 0 0 Z " fill="#A2DCD2" transform="translate(366,525)"/>
<path d="M0 0 C52 0 52 0 64 4 C62.0759482 21.0958025 59.69970211 38.07903005 56.98828125 55.06640625 C56.61102063 57.4519981 56.23417245 59.8376552 55.85771179 62.22337341 C54.88037145 68.41000449 53.89754816 74.59575149 52.91345215 80.78131104 C51.90438469 87.13036018 50.90068213 93.48025729 49.89648438 99.83007812 C47.93614373 112.22087246 45.96999093 124.61073654 44 137 C45.10453018 136.99242676 46.20906036 136.98485352 47.34706116 136.97705078 C50.33448961 136.995819 52.74145911 137.20238461 55.62109375 137.875 C56.41064453 138.05546875 57.20019531 138.2359375 58.01367188 138.421875 C58.81353516 138.61265625 59.61339844 138.8034375 60.4375 139 C61.26443359 139.19078125 62.09136719 139.3815625 62.94335938 139.578125 C64.96382366 140.04528437 66.98214547 140.52169374 69 141 C70.6193081 145.07395293 69.3953623 148.8055699 68.41772461 152.89233398 C68.2350878 153.68212111 68.052451 154.47190825 67.86427975 155.28562832 C65.54986747 165.14932038 62.93316039 174.93587106 60.31640625 184.72265625 C59.77333757 186.76363895 59.23053201 188.80469168 58.68797302 190.84580994 C57.5582002 195.09289232 56.42595515 199.33930479 55.29174805 203.58520508 C53.85116307 208.97844342 52.41580782 214.37305625 50.98219395 219.76815128 C49.8642788 223.9735264 48.74408336 228.17829149 47.6231823 232.38287163 C47.0936423 234.36987694 46.56465892 236.35703068 46.03628731 238.344347 C42.86015983 250.28270577 39.55481524 262.16856919 36 274 C24.19224505 276.36155099 11.94258698 272.54097897 0 271 C0 181.57 0 92.14 0 0 Z " fill="#7C9FA7" transform="translate(399,0)"/>
<path d="M0 0 C30.57268597 7.43734102 61.01617206 15.31241662 91.40267181 23.47381973 C94.06727397 24.18878094 96.73244595 24.90158166 99.39776611 25.61386108 C103.63046644 26.74552115 107.86149195 27.88323966 112.09124947 29.02584839 C113.66738305 29.45083561 115.2440013 29.87402979 116.82111931 30.29534912 C118.9903702 30.87544875 121.15761308 31.46251874 123.32446289 32.05151367 C125.15769859 32.54562996 125.15769859 32.54562996 127.02796936 33.04972839 C130 34 130 34 133 36 C133 47.41149518 130.67233934 58.71170946 129 70 C39.57 70 -49.86 70 -142 70 C-142 19 -142 19 -138 7 C-122.7513435 8.31876191 -107.70769177 10.46404532 -92.59765625 12.87890625 C-90.21690571 13.25525989 -87.83608043 13.63114101 -85.45518494 14.00657654 C-79.25379904 14.98586268 -73.05352828 15.97203988 -66.85345459 16.95959473 C-61.77576747 17.76713918 -56.69728935 18.56964153 -51.61876774 19.37191868 C-45.54896363 20.33089673 -39.47950959 21.29207985 -33.41015625 22.25390625 C-32.25791124 22.43645021 -31.10566624 22.61899418 -29.91850471 22.80706978 C-26.66691582 23.32275146 -23.41556855 23.83992721 -20.16430664 24.35766602 C-18.72358292 24.5860038 -18.72358292 24.5860038 -17.25375366 24.81895447 C-16.3670549 24.96047943 -15.48035614 25.10200439 -14.56678772 25.24781799 C-13.80094392 25.36966241 -13.03510012 25.49150682 -12.24604893 25.6170435 C-9.82008505 26.03067591 -7.41094417 26.50684447 -5 27 C-5.03996094 25.86304688 -5.07992187 24.72609375 -5.12109375 23.5546875 C-5.1200628 18.87624592 -4.20750118 14.64161366 -3.0625 10.125 C-2.88009766 9.36703125 -2.69769531 8.6090625 -2.50976562 7.828125 C-1.164185 2.32836999 -1.164185 2.32836999 0 0 Z " fill="#50CFB3" transform="translate(142,330)"/>
<path d="M0 0 C89.43 0 178.86 0 271 0 C271 51 271 51 267 63 C251.74019875 61.67980563 236.68415507 59.53459012 221.5625 57.12109375 C219.17935009 56.74476333 216.79612927 56.36888171 214.4128418 55.99342346 C209.46413234 55.21265888 204.51601632 54.42827546 199.56835938 53.64086914 C193.22526295 52.63143235 186.88114627 51.62859157 180.53663635 50.62808132 C174.46155721 49.66973572 168.3870194 48.70797968 162.3125 47.74609375 C161.15759064 47.56354979 160.00268127 47.38100582 158.81277466 47.19293022 C155.55847164 46.67796455 152.30456823 46.16054893 149.05078125 45.64233398 C148.08670349 45.4901088 147.12262573 45.33788361 146.1293335 45.18104553 C145.2440094 45.03952057 144.3586853 44.89799561 143.4465332 44.75218201 C142.67976761 44.63033759 141.91300201 44.50849318 141.1230011 44.3829565 C139.05247182 44.0094651 137.03417736 43.53508139 135 43 C134.85900879 43.74685059 134.71801758 44.49370117 134.57275391 45.26318359 C133.93150821 48.6353692 133.27841283 52.0051518 132.625 55.375 C132.40328125 56.550625 132.1815625 57.72625 131.953125 58.9375 C131.73398437 60.05898438 131.51484375 61.18046875 131.2890625 62.3359375 C131.09006348 63.37282715 130.89106445 64.4097168 130.68603516 65.47802734 C130 68 130 68 128 70 C125.30261107 69.55158144 122.79329942 68.98034931 120.16015625 68.2734375 C119.32311661 68.05853165 118.48607697 67.84362579 117.62367249 67.62220764 C114.7667464 66.88493691 111.91475242 66.13013513 109.0625 65.375 C107.0306302 64.84569025 104.99856013 64.31714883 102.96630859 63.78930664 C96.35108594 62.06515211 89.74249057 60.31623757 83.13436127 58.5651474 C80.0936509 57.76001212 77.05238287 56.95699243 74.0111475 56.15384293 C63.8937046 53.48176443 53.7786562 50.80073606 43.66544724 48.11267853 C41.97178013 47.66255004 40.27806724 47.21259379 38.58430862 46.76280975 C33.69469213 45.46426707 28.80591268 44.16265542 23.91836357 42.85635185 C22.41579386 42.45515524 20.91297882 42.05487611 19.40989876 41.65559578 C-2.04703325 35.95296675 -2.04703325 35.95296675 -4 34 C-4 22.58850482 -1.67233934 11.28829054 0 0 Z " fill="#E870AF" transform="translate(529,400)"/>
<path d="M0 0 C16.56297436 3.97132528 32.65205175 9.34022936 48.80026245 14.70724869 C52.5144982 15.94027102 56.23092054 17.16666341 59.94726562 18.39331055 C64.41461696 19.86812713 68.88187842 21.34320678 73.3482666 22.82093811 C86.05285801 27.02379047 98.77260133 31.17922595 111.5 35.3125 C113.28256509 35.89180569 115.06511766 36.47114989 116.84765625 37.05053711 C119.16993214 37.80534819 121.49224365 38.5600462 123.81481934 39.31393433 C126.54620634 40.200687 129.2756259 41.0918753 132 42 C129.99316293 49.9604537 127.45857935 57.59504065 124.5 65.25 C124.07219238 66.3622998 123.64438477 67.47459961 123.20361328 68.62060547 C118.73067459 80.03314136 113.48810508 91.04583041 108 102 C101.93007691 100.70675325 96.93270494 98.70906754 91.4609375 95.81640625 C90.26831802 95.19920464 90.26831802 95.19920464 89.05160522 94.5695343 C86.48874802 93.2413789 83.93196091 91.90196582 81.375 90.5625 C78.72268073 89.18476783 76.06887583 87.80992597 73.41503906 86.43511963 C71.67103037 85.53129474 69.92753624 84.62647625 68.18457031 83.72064209 C61.73846396 80.37196083 55.26123567 77.09548091 48.75 73.875 C41.7455567 70.40047954 34.8139965 66.81264207 27.91479492 63.1340332 C22.59498359 60.31733717 17.22939957 57.60184519 11.83984375 54.921875 C11.12002319 54.56373215 10.40020264 54.20558929 9.65856934 53.83659363 C6.03019458 52.03291867 2.39895774 50.23527466 -1.23583984 48.44458008 C-2.58305397 47.7769486 -3.93022388 47.1092279 -5.27734375 46.44140625 C-6.20583885 45.98728363 -6.20583885 45.98728363 -7.15309143 45.52398682 C-10.34943707 43.93501701 -13.2282195 42.2543472 -16 40 C-14.6844239 35.9075194 -13.19613302 31.95876528 -11.50390625 28.0078125 C-10.78944336 26.33138672 -10.78944336 26.33138672 -10.06054688 24.62109375 C-9.56619141 23.46738281 -9.07183594 22.31367188 -8.5625 21.125 C-7.58305068 18.83661513 -6.60514817 16.54756751 -5.62890625 14.2578125 C-5.19650635 13.2486377 -4.76410645 12.23946289 -4.31860352 11.19970703 C-2.79194635 7.49513959 -1.39073993 3.75761609 0 0 Z " fill="#DE81B4" transform="translate(650,480)"/>
<path d="M0 0 C6.09628444 1.29664273 11.113687 3.31478018 16.609375 6.21875 C17.4099231 6.63295197 18.21047119 7.04715393 19.03527832 7.47390747 C21.61085799 8.80838257 24.18035413 10.15414034 26.75 11.5 C28.52522651 12.42200455 30.30094455 13.34306333 32.07714844 14.26318359 C34.69702576 15.62040723 37.31664198 16.97809643 39.93463135 18.33895874 C46.00968751 21.4960413 52.11150368 24.59289275 58.25 27.625 C64.84083706 30.89120013 71.35215804 34.28474837 77.84301758 37.74487305 C83.39286879 40.68069269 88.99212603 43.50869508 94.61328125 46.3046875 C95.37642639 46.68449265 96.13957153 47.06429779 96.92584229 47.45561218 C100.78878316 49.37654016 104.65460079 51.29142872 108.52392578 53.19946289 C109.96261202 53.91282856 111.40125329 54.62628494 112.83984375 55.33984375 C113.8339904 55.82679214 113.8339904 55.82679214 114.84822083 56.32357788 C118.14548551 57.96332968 121.14681234 59.66369741 124 62 C121.89549143 68.96379522 118.75686437 75.51459459 115.80859375 82.15039062 C112.93373833 88.68140601 110.35127224 95.26260537 108 102 C91.43702564 98.02867472 75.34794825 92.65977064 59.19973755 87.29275131 C55.4855018 86.05972898 51.76907946 84.83333659 48.05273438 83.60668945 C43.58538304 82.13187287 39.11812158 80.65679322 34.6517334 79.17906189 C21.94714199 74.97620953 9.22739867 70.82077405 -3.5 66.6875 C-5.28256509 66.10819431 -7.06511766 65.52885011 -8.84765625 64.94946289 C-11.16993214 64.19465181 -13.49224365 63.4399538 -15.81481934 62.68606567 C-18.54620634 61.799313 -21.2756259 60.9081247 -24 60 C-21.99316293 52.0395463 -19.45857935 44.40495935 -16.5 36.75 C-16.07219238 35.6377002 -15.64438477 34.52540039 -15.20361328 33.37939453 C-10.73067459 21.96685864 -5.48810508 10.95416959 0 0 Z " fill="#2EC0A0" transform="translate(42,218)"/>
<path d="M0 0 C0.96486328 0.40726318 0.96486328 0.40726318 1.94921875 0.82275391 C14.54868781 6.13169567 27.15397453 11.31646547 40 16 C37.0543179 29.2599886 32.83580137 42.04079718 28.54736328 54.91717529 C26.4215816 61.30008906 24.31231526 67.68842763 22.20703125 74.078125 C21.99165333 74.73129574 21.77627541 75.38446648 21.55437088 76.05743027 C18.3105384 85.90323495 15.15825182 95.77490737 12.07421875 105.671875 C11.68510818 106.91895233 11.29599762 108.16602966 10.89509583 109.45089722 C9.03330634 115.42675861 7.18300582 121.40595232 5.3449707 127.38916016 C4.67809462 129.53814723 4.01103158 131.6870763 3.34375 133.8359375 C2.89965034 135.30060455 2.89965034 135.30060455 2.44657898 136.79486084 C2.16707901 137.69061829 1.88757904 138.58637573 1.59960938 139.50927734 C1.36157593 140.28475922 1.12354248 141.06024109 0.8782959 141.85922241 C-0.09806575 144.23902761 -1.38121429 146.0120157 -3 148 C-23.58537557 142.07335665 -42.87592105 133.57911455 -62 124 C-60.15743565 118.02987735 -57.95381314 112.4788841 -55.12109375 106.9140625 C-54.75315201 106.17968964 -54.38521027 105.44531677 -54.00611877 104.68869019 C-52.82264473 102.33101705 -51.63035956 99.97793642 -50.4375 97.625 C-49.60968686 95.98129057 -48.78221487 94.33740928 -47.95507812 92.69335938 C-43.69216262 84.23575018 -39.37709647 75.81025537 -34.90795898 67.45947266 C-30.44095548 59.05664633 -26.24143665 50.5180599 -22 42 C-12.03392926 21.99054281 -12.03392926 21.99054281 -7.0625 12.5625 C-6.68029297 11.83740234 -6.29808594 11.11230469 -5.90429688 10.36523438 C-4.03245257 6.84644388 -2.06250559 3.40962616 0 0 Z " fill="#8DD7C7" transform="translate(280,634)"/>
<path d="M0 0 C7.9604537 2.00683707 15.59504065 4.54142065 23.25 7.5 C24.3622998 7.92780762 25.47459961 8.35561523 26.62060547 8.79638672 C38.03471079 13.26994052 49.03903987 18.52324201 60 24 C58.15743565 29.97012265 55.95381314 35.5211159 53.12109375 41.0859375 C52.75315201 41.82031036 52.38521027 42.55468323 52.00611877 43.31130981 C50.82264473 45.66898295 49.63035956 48.02206358 48.4375 50.375 C47.60968686 52.01870943 46.78221487 53.66259072 45.95507812 55.30664062 C41.69216262 63.76424982 37.37709647 72.18974463 32.90795898 80.54052734 C28.44095548 88.94335367 24.24143665 97.4819401 20 106 C10.03392926 126.00945719 10.03392926 126.00945719 5.0625 135.4375 C4.68029297 136.16259766 4.29808594 136.88769531 3.90429688 137.63476562 C2.03245257 141.15355612 0.06250559 144.59037384 -2 148 C-2.64324219 147.72849121 -3.28648437 147.45698242 -3.94921875 147.17724609 C-16.54868781 141.86830433 -29.15397453 136.68353453 -42 132 C-39.10852227 119.10902959 -35.082556 106.6664551 -30.91802979 94.13879395 C-28.90511771 88.08333342 -26.91040248 82.02187751 -24.9140625 75.9609375 C-24.506185 74.72408203 -24.0983075 73.48722656 -23.67807007 72.21289062 C-18.72211578 57.1610659 -13.92012971 42.06017456 -9.12792969 26.95556641 C-3.22718917 8.39220576 -3.22718917 8.39220576 0 0 Z " fill="#C27DA7" transform="translate(522,18)"/>
</svg>
